<?xml version="1.0" encoding="UTF-8" standalone="no"?>
<svg
   xmlns:dc="http://purl.org/dc/elements/1.1/"
   xmlns:cc="http://creativecommons.org/ns#"
   xmlns:rdf="http://www.w3.org/1999/02/22-rdf-syntax-ns#"
   xmlns:svg="http://www.w3.org/2000/svg"
   xmlns="http://www.w3.org/2000/svg"
   xmlns:sodipodi="http://sodipodi.sourceforge.net/DTD/sodipodi-0.dtd"
   xmlns:inkscape="http://www.inkscape.org/namespaces/inkscape"
   id="svg2"
   viewBox="0 0 744.09 1052.4"
   version="1.1"
   inkscape:version="1.0.2 (e86c870879, 2021-01-15, custom)"
   width="100%"
   height="100%"
   sodipodi:docname="shopalop_slot_machine.svg">
  <defs
     id="defs96" />
  <sodipodi:namedview
     pagecolor="#ffffff"
     bordercolor="#666666"
     borderopacity="1"
     objecttolerance="10"
     gridtolerance="10"
     guidetolerance="10"
     inkscape:pageopacity="0"
     inkscape:pageshadow="2"
     inkscape:window-width="1446"
     inkscape:window-height="861"
     id="namedview94"
     showgrid="false"
     inkscape:zoom="0.44849867"
     inkscape:cx="328.08524"
     inkscape:cy="683.86084"
     inkscape:window-x="2248"
     inkscape:window-y="96"
     inkscape:window-maximized="0"
     inkscape:current-layer="svg2"
     inkscape:document-rotation="0" />
  <metadata
     id="metadata92">
    <rdf:RDF>
      <cc:Work>
        <dc:format>image/svg+xml</dc:format>
        <dc:type
           rdf:resource="http://purl.org/dc/dcmitype/StillImage" />
        <cc:license
           rdf:resource="http://creativecommons.org/publicdomain/zero/1.0/" />
        <dc:publisher>
          <cc:Agent
             rdf:about="http://openclipart.org/">
            <dc:title>Openclipart</dc:title>
          </cc:Agent>
        </dc:publisher>
        <dc:title>slot machine</dc:title>
        <dc:date>2009-03-17T15:08:40</dc:date>
        <dc:description>this was a request from someone which i then drew with inkscape</dc:description>
        <dc:source>http://openclipart.org/detail/22444/slot-machine-by-shopalop</dc:source>
        <dc:creator>
          <cc:Agent>
            <dc:title>shopalop</dc:title>
          </cc:Agent>
        </dc:creator>
        <dc:subject>
          <rdf:Bag>
            <rdf:li>arab</rdf:li>
            <rdf:li>asian</rdf:li>
            <rdf:li>cartoon</rdf:li>
            <rdf:li>casino</rdf:li>
            <rdf:li>clip art</rdf:li>
            <rdf:li>clipart</rdf:li>
            <rdf:li>externalsource</rdf:li>
            <rdf:li>image</rdf:li>
            <rdf:li>machine</rdf:li>
            <rdf:li>media</rdf:li>
            <rdf:li>public domain</rdf:li>
            <rdf:li>slot</rdf:li>
            <rdf:li>svg</rdf:li>
          </rdf:Bag>
        </dc:subject>
      </cc:Work>
      <cc:License
         rdf:about="http://creativecommons.org/publicdomain/zero/1.0/">
        <cc:permits
           rdf:resource="http://creativecommons.org/ns#Reproduction" />
        <cc:permits
           rdf:resource="http://creativecommons.org/ns#Distribution" />
        <cc:permits
           rdf:resource="http://creativecommons.org/ns#DerivativeWorks" />
      </cc:License>
    </rdf:RDF>
  </metadata>
  <g
     id="g4005"
     transform="translate(-599.7788,-8.9186439)">
    <path
       id="path2293-1-2"
       d="m -224.37143,462.07376 c -12.13001,3.7 -13.31001,14.62 -20,28 -2.943,5.88 -2.87,23.48 -4,28 -2.339,9.35 0,22.25 0,32 0,12.75 -8,17.49 -8,30 v 32 c 0,15.47 -2.922,18.92 -14,30 -5.528,5.53 -22.028,0.99 -26,0 -10.655,-2.67 -15.186,-2.75 -18,-14 -3.174,-12.7 -2.353,-15.65 6,-24 6.953,-6.96 16.765,-4.77 22,-10 2.989,-2.99 0,-25.25 0,-30 0,-11.39 1.853,-17.41 4,-26 1.981,-7.93 2,-19.28 2,-30 0,-8.35 2.378,-18.76 6,-26 4.719,-9.44 4.42,-16.42 10,-22 7.578,-7.58 12.289,-16.39 18,-23.99999 3.871,-5.15999 12.88999,-9.44999 17.99999,-11.99999"
       inkscape:connector-curvature="0"
       style="fill:none;stroke:#000000;stroke-width:1px" />
    <path
       id="path2297-7-4"
       d="m -231.83144,434.88378 c -4.88,2.80999 -8.868,6.85999 -12.90899,10.72998 -4.363,4.81 -8.559,9.72 -12.465,14.9 -3.242,3.73 -6.36,7.54 -9.423,11.41 -3.122,4.21 -5.7,8.78 -8.384,13.27 -3.299,5.16 -6.364,10.43 -9.196,15.85 -2.382,4.68 -2.592,9.76 -3.091,14.85 -0.102,5.62 -0.048,11.23 -0.037,16.85 0,1.74 -0.015,3.48 -0.023,5.23 l 25.932,13.2 c -0.003,-0.26 -0.064,-5.1 -0.062,-5.27 -0.025,-5.55 -0.108,-11.1 0.096,-16.65 0.366,-4.74 0.425,-9.49 2.411,-13.93 2.858,-5.3 5.581,-10.68 9.096,-15.61 2.676,-4.33 5.196,-8.79 8.34699,-12.8 3.058,-3.9 6.118,-7.79 9.188,-11.69 3.81,-5.02 7.85001,-9.83 12.2,-14.41 4.09,-3.86 8.1,-7.8 13.32,-10.12 l -25,-15.80998 z"
       inkscape:connector-curvature="0"
       style="fill:#b3b3b3" />
    <path
       id="path2301-4-5"
       d="m -237.53144,421.89378 c -4.36699,2.19 -8.58899,4.64 -12.91199,6.93 -5.984,3.02 -11.68,6.5 -17.393,9.97999 -5.177,3.68 -5.828,8.52999 -7.223,14.20999 -0.764,4.76 -1.628,9.5 -2.448,14.26 -1.757,4.87 -2.432,9.96 -3.264,15.03 -0.552,5.14 -0.531,10.31 -0.595,15.47 0.044,4.97 0,9.94 -0.026,14.91 0.046,4.77 0.034,9.54 0.039,14.32 -0.009,4.7 -0.01,9.41 -0.007,14.12 -0.033,5.2 -1.891,9.99 -3.481,14.86 -1.332,4.78 -2.056,9.71 -2.894,14.6 -0.821,4.19 -1.958,8.31 -2.925,12.47 -0.621,4.34 -0.688,8.74 -0.891,13.11 0.366,4.53 -2.192,7.25 -4.05,10.78 -2.955,2.83 -6.721,4.37 -10.353,6.1 -3.566,0.81 -6.025,3.23 -8.835,5.17 -2.678,3.27 -1.427,6.02 -1.214,9.58 0.856,3.13 3.665,4.55 5.702,6.68 18.539,13.73 20.275,14.97 35.462,16.2 4.588,0.75 6.635,-2.01 10.015,-4.04 2.648,-3.38 2.813,-7.35 3.386,-11.4 0.907,-3.49 1.202,-7.07 1.728,-10.62 0.269,-4.92 0.27,-9.85 0.34,-14.77 -0.004,-4.75 -0.003,-9.49 0.012,-14.24 0.023,-4.18 0.027,-8.36 0.034,-12.53 -0.259,-4.4 0.483,-8.73 1.071,-13.06 0.363,-4.66 1.285,-9.24 2.096,-13.83 1.456,-5.13 1.906,-10.41 2.464,-15.68 -0.159,-4.15 0.886,-8.12 1.658,-12.14 1.462,-4.44 2.408,-9.03 3.462,-13.58 0.683,-4.62 2.461,-8.78 4.196,-13.01 2.312,-3.9 4.01899,-8.07 5.80299,-12.21 2.263,-4.59 5.343,-8.73 8.223,-12.94 2.88001,-3.27 5.49001,-6.73 8.13001,-10.12 1.87999,-3.24 3.78999,-6.46 5.69999,-9.68 -27.22399,-17.57999 -21.06,-21.06999 -31.61799,-7.4 -3.037,4.29 -5.826,8.72 -8.627,13.14 -3.323,4.93 -5.598,10.37 -7.915,15.8 -2.13,4.8 -1.97,9.76 -2.101,14.81 0.606,4.57 0.885,9.16 1.189,13.76 0.633,3.73 -0.231,7.3 -0.636,10.96 -1.168,3.05 -2.317,6.11 -3.467,9.17 -1.609,3.92 -3.164,7.84 -4.593,11.83 -0.943,4.55 -0.947,9.19 -1.12,13.81 -0.001,4.1 -0.801,8.16 -1.395,12.21 -0.5,4.03 -0.509,8.09 -0.607,12.14 -0.036,4 -0.022,8.01 -0.019,12.01 0.448,3.99 -0.614,7.79 -1.246,11.66 -1.334,4.26 -3.308,8.27 -5.103,12.33 0.019,3.4 -2.14,6.56 -3.054,9.22 -4.67,1.47 -9.486,1.02 -14.24,0.98 -11.592,-2.18 -29.339,-14.69 13.998,10 -3.488,-2.07 -4.067,-5.35 -5.636,-8.62 -1.032,-3.31 1.319,-5.44 2.257,-8.15 2.903,-2.91 6.718,-3.22 10.563,-4.04 5.699,-1.97 9.581,-6.21 13.561,-10.52 4.114,-3.48 6.611,-7.97 9.253,-12.49 1.636,-4.04 1.558,-8.34 1.769,-12.6 0.03,-5.43 -0.098,-10.87 -0.158,-16.3 0.02,-5.09 0.073,-10.17 0.114,-15.26 0.036,-4.57 -0.028,-9.15 -0.053,-13.72 -0.353,-5.01 0.227,-9.95 0.652,-14.89 0.892,-4.69 2.257,-9.27 3.599,-13.78 2.506,-3.39 5.928,-5.87 9.181,-8.51 6.35199,-5.25 12.82199,-10.32 19.362,-15.33 l -23.614,-14.95 c -6.684,4.99 -13.314,10.05 -20.166,14.8 -3.725,2.89 -7.74,5.42 -10.288,9.52 -1.33,4.76 -2.656,9.57 -3.693,14.47 -0.635,5.13 -1.465,10.21 -0.965,15.46 -0.026,4.55 -0.091,9.11 -0.052,13.66 0.052,5.14 0.109,10.28 0.166,15.42 -0.021,5.37 -0.066,10.74 -0.089,16.1 -0.155,3.9 -0.051,7.85 -1.274,11.6 -2.361,4.3 -4.688,8.49 -8.441,11.87 -3.782,3.85 -7.422,7.47 -12.847,8.85 -4.51,1.2 -8.693,1.8 -11.83,5.68 -1.589,3.44 -3.974,6.08 -3.405,10.31 1.194,3.87 1.27,7.7 4.868,10.4 14.877,8.96 21.74,16.87 36.595,18.28 5.413,-0.28 10.904,-0.01 15.818,-2.72 1.434,-3.39 3.871,-6.35 3.684,-10.56 1.726,-4.18 3.529,-8.33 5.188,-12.54 0.864,-4.07 2.023,-8.11 1.628,-12.33 -0.004,-4 -0.017,-7.99 0.003,-11.98 0.088,-3.96 0.034,-7.92 0.455,-11.87 0.568,-4.15 1.381,-8.32 1.486,-12.51 0.088,-4.39 -0.013,-8.81 0.847,-13.14 1.438,-3.9 2.601,-7.91 4.543,-11.64 1.232,-3.15 2.47799,-6.3 3.69199,-9.47 0.491,-3.9 1.5,-7.68 0.827,-11.67 -0.301,-4.65 -0.559,-9.3 -1.222,-13.91 -0.112,-4.66 -0.488,-9.14 1.425,-13.61 2.141,-5.37 4.121,-10.82 7.681,-15.47 2.75,-4.32 5.50001,-8.63 8.45001,-12.81 10.99999,-12.83 8.96999,-6.77 -19.259,-21.97999 -1.634,3.13999 -3.122,6.52999 -5.138,9.54999 -2.65,3.27 -5.255,6.65 -7.898,9.96 -2.936,4.44 -6.032,8.81 -8.636,13.45 -1.71,4.07 -3.371,8.16 -5.595,11.99 -1.929,4.51 -3.892,8.87 -4.584,13.83 -1.037,4.46 -1.979,8.92 -3.518,13.24 -0.949,4.22 -2.047,8.39 -1.762,12.79 -0.469,5.15 -0.769,10.32 -2.22,15.32 -0.952,4.64 -2.125,9.24 -2.329,13.99 -0.629,4.43 -1.525,8.86 -1.338,13.35 0.009,4.19 0.014,8.39 0.045,12.58 0.026,4.75 0.044,9.49 0.025,14.24 -0.012,4.84 0.061,9.68 -0.325,14.51 -0.524,3.56 -0.844,7.15 -1.78,10.64 -0.488,3.31 -0.183,6.72 -2.431,9.49 -2.831,0.92 -5.057,3.24 -8.58,2.06 -12.152,-2.3 -25.854,-8.24 15.618,11.93 -2.179,-1.7 -4.827,-2.63 -6.347,-5.1 -0.127,-1.97 -3.135,-4.54 -0.422,-6.55 2.654,-1.47 5.163,-3.48 8.159,-4.44 3.854,-2.01 7.853,-3.78 10.905,-7 2.502,-4 4.882,-7.37 4.854,-12.43 0.265,-4.29 0.505,-8.61 0.915,-12.9 0.942,-4.14 1.815,-8.31 2.804,-12.43 0.791,-4.83 1.453,-9.69 2.581,-14.46 1.73,-5.09 3.713,-10.12 4.016,-15.55 0.003,-4.71 0.002,-9.42 -0.008,-14.13 0.001,-4.77 -0.011,-9.53 0.02,-14.3 -0.044,-4.98 -0.117,-9.96 -0.063,-14.94 0.048,-5.07 -0.016,-10.15 0.411,-15.21 0.749,-5 1.355,-10.01 3.187,-14.78 0.889,-4.81 1.796,-9.61 2.533,-14.45 1.027,-4.93 1.349,-8.95 5.796,-12.16 5.57399,-3.47 11.26399,-6.7 17.094,-9.74 4.32,-2.17999 8.60999,-4.57999 13.28999,-5.92999 l -24.41,-16.82999 z"
       inkscape:connector-curvature="0"
       style="fill:#b3b3b3" />
    <path
       id="path2339-0-5"
       d="m -289.48043,579.14376 c 2.743,1.7 4.927,4.14 7.285,6.31 2.103,2.45 2.824,5.55 4.018,8.42 1.483,4.04 -0.371,7.18 -1.255,10.94 -1.933,4.44 -5.157,8.12 -8.049,11.95 -2.127,2.68 -4.924,4.7 -7.489,6.93 -2.165,2.28 -4.852,3.94 -7.368,5.8 -6.408,-0.94 10.567,7.55 16.258,10.65 -2.461,-3.44 -3.004,-7.73 -3.986,-11.76 -0.991,-3.73 -0.944,-7.58 -1.21,-11.39 0.198,-4.01 1.97,-7.72 3.322,-11.45 1.515,-4.21 4.804,-4.95 8.189,-7.05 4.269,-1.9 8.566,-1.32 12.861,-1.11 -8.284,2.59 -20.742,-23.83 -20.604,-4.57 -1.273,3.85 -4.394,5.15 -7.259,7.35 -5.063,0.51 -8.38,3.59 -12.264,6.38 -2.772,3.02 -5.448,6.1 -8.134,9.19 -2.795,3.25 -3.933,7.16 -5.319,11.08 -0.567,14.83 18.218,16.32 30.199,23.06 4.89,0.73 9.836,0.72 14.766,0.84 4.216,0.02 8.433,-0.01 12.65,-0.02 5.241,1.09 6.477,-1.7 9.956,-4.09 1.747,-3.6 1.406,-7.56 1.669,-11.42 0.111,-4.09 -0.081,-8.17 -0.214,-12.24 -0.449,-4.25 -2.276,-8.14 -3.805,-12.07 -0.204,-0.66 -0.409,-1.32 -0.614,-1.98 l -26.414,-12.55 c 0.184,0.71 0.368,1.43 0.552,2.14 1.463,3.78 3.068,7.57 4.026,11.49 0.183,3.93 0.596,7.9 0.378,11.87 -0.159,3.3 0.167,6.71 -1.032,9.86 -2.409,0.69 -4.85,3.08 -8.202,1.79 -4.18,0.02 -8.36,0.06 -12.539,0.03 -4.794,-0.19 -9.673,-0.06 -14.28,-1.62 5.892,3.57 22.306,14.69 18.689,8.82 1.326,-3.45 1.956,-7.09 4.709,-9.9 2.563,-3.02 5.094,-6.06 7.803,-8.95 3.824,-2.41 7.408,-4.66 11.974,-5.67 3.491,-2.76 6.793,-5.01 8.352,-9.49 2.048,-17.31 -5.804,-18.73 -28.389,-26.89 -4.727,0.34 -9.427,0.35 -13.828,2.52 -4.02,2.49 -7.64,4.18 -9.429,8.98 -1.5,4.07 -3.35,8.1 -3.914,12.44 0.19,3.98 0.098,8 0.959,11.92 1.151,4.32 1.834,8.79 3.467,12.94 11.347,7.31 21.881,22.65 35.471,16.68 2.565,-1.92 5.263,-3.68 7.517,-5.97 2.676,-2.46 5.592,-4.73 7.681,-7.75 2.954,-4.02 6.136,-7.93 8.378,-12.42 1.457,-4.15 3.252,-7.93 2.223,-12.48 -0.971,-3.31 -1.431,-6.65 -3.462,-9.59 -2.146,-2.42 -4.144,-5.01 -6.639,-7.13 l -27.654,-10.82 z"
       inkscape:connector-curvature="0"
       style="fill:#ff0000" />
  </g>
  <text
     xml:space="preserve"
     style="font-style:normal;font-weight:normal;line-height:0%;font-family:sans-serif;letter-spacing:0px;word-spacing:0px;fill:#000000;fill-opacity:1;stroke:none"
     x="-557.41522"
     y="-8.9186449"
     id="text4259"
     transform="translate(-4.7968621e-6)"><tspan
       sodipodi:role="line"
       id="tspan4261"
       x="-557.41522"
       y="-8.9186449"
       style="font-size:40px;line-height:1.25;font-family:sans-serif"> </tspan></text>
  <g
     id="g4372"
     inkscape:export-filename="C:\Users\Charles\Documents\Clients\_SM\LinguaSlots\doc\slot-machine.png"
     inkscape:export-xdpi="90"
     inkscape:export-ydpi="90">
    <rect
       id="rect2162"
       height="525.81763"
       width="881.07117"
       y="148.65933"
       x="-48.756943"
       style="fill:#b3b3b3" />
    <rect
       id="rect2166"
       height="137.11678"
       width="224.87169"
       y="315.80478"
       x="7.3033876"
       style="fill:#e6e6e6" />
    <path
       id="path2262"
       d="M 231.08034,449.40572 z"
       inkscape:connector-curvature="0"
       style="fill:none;stroke:#000000;stroke-width:0.97261572px" />
    <rect
       id="rect2303"
       height="181.6284"
       width="496"
       y="87.579216"
       x="127.77034"
       style="fill:#00ff00" />
    <path
       id="path2321"
       d="m 54.098985,510.02045 c 4.52,0.22704 9.05,0.15136 13.58,0.1419 4.480001,-0.0378 8.970001,-0.009 13.450001,0 5.73,-0.13244 11.44,0.11352 17.150003,0.43515 8.500001,0.62435 16.940001,1.75007 25.410001,2.64875 6.31,0.44461 12.65,0.7284 18.95,1.06896 5.43,0.32163 9.93,3.02714 14.65,5.22181 4.08,2.45955 7.11,6.01644 10.35,9.32738 2.76,3.39607 5.1,7.10432 7.53,10.72743 2.69,3.51905 3.88,7.69082 5.37,11.71125 1.71,4.27583 2.36,8.75978 3.14,13.22481 0.11,4.37044 0.9,8.66519 1.62,12.96941 0.24,4.40827 0.9,8.74086 1.63,13.09238 -0.03,3.67041 1.66,6.8489 2.86,10.122 2.41,2.55415 5.58,4.27583 8.5,6.27185 2.48,2.2609 5.81,2.99877 8.74,4.39882 l -24.28,15.48571 c -3.15,-1.55141 -6.46,-2.8474 -9.21,-5.07046 -3.21,-2.19467 -6.74,-4.02042 -9.14,-7.09486 -1.55,-3.62311 -3.3,-7.05702 -3.27,-11.15312 -0.77,-4.37989 -1.44,-8.72195 -1.68,-13.14914 -0.7,-4.35151 -1.53,-8.68411 -1.61,-13.09238 -0.66,-4.34205 -1.18,-8.70303 -2.94,-12.81805 -1.39,-3.72716 -2.46,-7.6246 -4.91,-10.91662 -2.37,-3.54743 -4.64,-7.20838 -7.44,-10.46255 -2.99,-3.12174 -5.77,-6.46106 -9.72,-8.59897 -4.47,-1.90143 -8.76,-4.15286 -13.84,-4.2853 -6.23,-0.33109 -12.48,-0.60543 -18.68,-1.29599 -8.410004,-1.07842 -16.820004,-2.25144 -25.320004,-2.53523 -5.81,-0.0473 -11.630001,-0.0662 -17.450001,-0.0189 -4.49,0.0189 -8.97,0.0378 -13.45,0 -4.66,0 -9.33,-0.0757 -13.99,0.1419 l 24,-16.49792 z"
       inkscape:connector-curvature="0"
       style="fill:#ff0000" />
    <path
       id="path2323"
       d="m 721.93068,522.03067 c -6,-0.22704 -12,-0.21758 -18,-0.25542 -6.02,-0.35001 -11.87,0.32163 -17.79,1.1541 -3.92,0.12298 -7.48,1.47573 -11.13,2.62037 25.92,-14.71001 26.6,-16.39386 13.89,-5.93131 -3.68,3.40554 -6.71,7.34082 -9.85,11.17204 -2.86,2.75281 -4.79,6.01644 -6.83,9.28008 -1.63,3.70825 -3.1,7.48271 -4.61,11.23826 -2.02,3.99204 -3.55,8.1449 -5.09,12.31667 -1.68,4.35152 -1.88,8.95845 -2.32,13.50862 0.22,4.55017 -0.45,8.9679 -1.1,13.43293 -1.34,5.2975 -5.37,8.03138 -9.39,11.42745 -18.04,12.69507 -23.23,15.14517 -40.3,16.3844 -4.58,0.16082 -9.17,0.11352 -13.76,0.10406 -0.68,-0.009 -1.36,-0.009 -2.05,-0.009 l 23.7,-16.27088 c 0.68,0.009 1.36,0.009 2.04,0.0189 4.49,0.0189 8.99,0.0946 13.48,-0.13244 12.98,-1.57979 31.34,-9.82874 -10.2,9.93281 4.06,-2.73389 8.23,-4.87181 10.11,-9.54495 0.96,-4.29476 1.84,-8.48546 1.45,-12.95049 0.35,-4.76774 0.52,-9.56387 1.95,-14.18972 1.49,-4.21907 2.9,-8.45707 4.9,-12.47749 1.61,-3.71771 3.01,-7.50163 4.71,-11.1815 1.79,-3.63257 3.17,-7.29352 6.43,-10.10308 3.28,-3.76501 6.29,-7.76651 9.86,-11.30448 10.15,-9.72468 21.43,-17.71823 36.13,-21.80487 3.76,-0.823 7.43,-1.9298 11.33,-2.06224 5.86,-0.48245 11.7,-0.89868 17.6,-0.54866 6.26,-0.0473 12.52,-0.0378 18.77,-0.26488 l -23.93,16.44116 z"
       inkscape:connector-curvature="0"
       style="fill:#ff0000" />
    <path
       id="path2325"
       d="m 387.84509,234.35514 c 2.42,3.67987 2.25,7.60569 2.66,11.69233 -0.91,5.77049 -1.74,11.53151 -2.48,17.32092 -0.44,4.69207 -0.41,9.41251 -0.46,14.1235 l -26.05,12.52479 c 0.11,-4.81504 0.16,-9.63955 0.61,-14.44513 0.62,-5.72319 1.42,-11.418 2.44,-17.09388 -0.26,-3.55689 0.09,-6.84891 -2.34,-9.91389 l 25.62,-14.20864 z"
       inkscape:connector-curvature="0"
       style="fill:#ff0000" />
    <path
       id="path2384"
       d="m 123.77034,79.065386 a 25,0.9459813 0 0 1 -50.000001,0 25,0.9459813 0 1 1 50.000001,0 z"
       inkscape:connector-curvature="0"
       style="fill:#ffffff" />
    <path
       id="path2386"
       d="m 201.77034,79.065386 a 70,29.32542 0 0 1 -140.000001,0 70,29.32542 0 1 1 140.000001,0 z"
       inkscape:connector-curvature="0"
       style="fill:#ffffff" />
    <path
       id="path2388"
       d="m 649.77034,80.011368 a 67,20.811589 0 0 1 -134,0 67,20.811589 0 1 1 134,0 z"
       inkscape:connector-curvature="0"
       style="fill:#ffffff" />
    <path
       id="path2390"
       d="m 507.77034,600.29919 a 76,0 0 0 0 -152,0 76,0 180 0 0 152,0 z"
       inkscape:connector-curvature="0"
       style="fill:#666666" />
    <path
       id="path2408"
       d="m 335.30576,275.76662 c 4.52,0.13243 9.05,0.0851 13.57,0.0851 4.26,-0.0189 8.52,-0.0189 12.78,-0.0284 h 24.01 c 4.54,0.0473 9.08,0.0189 13.62,0.0189 4.13,-0.009 8.26,-0.009 12.39,-0.0189 4.29,0 8.58,0.009 12.87,0.0284 2.25,0 4.5,-0.009 6.74,-0.009 l -23.82,16.37494 c -2.24,-0.009 -4.48,-0.009 -6.72,-0.009 -4.31,0.009 -8.62,0.0189 -12.93,0.0189 -4.12,0 -8.24,0 -12.36,-0.009 -4.55,-0.009 -9.1,-0.0284 -13.65,0.009 h -24.01 c -4.24,-0.009 -8.48,-0.009 -12.72,-0.0189 -4.6,-0.009 -9.2,-0.0473 -13.8,0.0757 l 24.03,-16.51683 z"
       inkscape:connector-curvature="0"
       style="fill:#cccccc" />
    <text
       transform="scale(1.0281553,0.97261571)"
       id="text3188"
       y="210.94844"
       x="223.36612"
       style="font-style:normal;font-weight:normal;line-height:0%;font-family:sans-serif;letter-spacing:0px;word-spacing:0px;fill:#0000ff;fill-opacity:1;stroke:#880000;stroke-width:0.972616;stroke-opacity:1"
       xml:space="preserve"><tspan
         style="font-style:normal;font-variant:normal;font-weight:normal;font-stretch:normal;font-size:70.0283px;line-height:1.25;font-family:Ravie;-inkscape-font-specification:Ravie;fill:#0000ff;fill-opacity:1;stroke:#880000;stroke-width:0.972616;stroke-opacity:1"
         y="210.94844"
         x="223.36612"
         id="tspan3190"
         sodipodi:role="line">Joue!</tspan></text>
    <rect
       id="rect2166-1"
       height="137.11678"
       width="224.87169"
       y="311.67844"
       x="278.44379"
       style="fill:#e6e6e6" />
    <rect
       id="rect2166-7"
       height="137.11678"
       width="224.87169"
       y="309.56921"
       x="552.69208"
       style="fill:#e6e6e6" />
    <text
       transform="scale(1.0281553,0.97261572)"
       id="text3188-6"
       y="552.18781"
       x="226.11781"
       style="font-style:normal;font-weight:normal;line-height:0%;font-family:sans-serif;letter-spacing:0px;word-spacing:0px;fill:#0000ff;fill-opacity:1;stroke:#880000;stroke-width:0.972616;stroke-opacity:1"
       xml:space="preserve"><tspan
         style="font-style:normal;font-variant:normal;font-weight:normal;font-stretch:normal;font-size:70.0283px;line-height:1.25;font-family:Ravie;-inkscape-font-specification:Ravie;fill:#0000ff;fill-opacity:1;stroke:#880000;stroke-width:0.972616;stroke-opacity:1"
         y="552.18781"
         x="226.11781"
         id="tspan3190-1"
         sodipodi:role="line">LINGUA</tspan><tspan
         id="tspan4207"
         style="font-style:normal;font-variant:normal;font-weight:normal;font-stretch:normal;font-size:70.0283px;line-height:1.25;font-family:Ravie;-inkscape-font-specification:Ravie;fill:#0000ff;fill-opacity:1;stroke:#880000;stroke-width:0.972616;stroke-opacity:1"
         y="639.72321"
         x="226.11781"
         sodipodi:role="line">SLOTS</tspan></text>
  </g>
  <g
     id="g4393"
     inkscape:export-filename="C:\Users\Charles\Documents\Clients\_SM\LinguaSlots\doc\arm-up.png"
     inkscape:export-xdpi="90"
     inkscape:export-ydpi="90">
    <path
       id="path2293-1-2-1"
       d="m -578.32332,339.67124 c -12.13001,-3.7 -13.31001,-14.62 -20,-28 -2.943,-5.88 -2.87,-23.48 -4,-28 -2.339,-9.35 0,-22.25 0,-32 0,-12.75 -8,-17.49 -8,-30 v -32 c 0,-15.47 -2.922,-18.92 -14,-30 -5.528,-5.53 -22.028,-0.99 -26,0 -10.655,2.67 -15.186,2.75 -18,14 -3.174,12.7 -2.353,15.65 6,24 6.953,6.96 16.765,4.77 22,10 2.989,2.99 0,25.25 0,30 0,11.39 1.853,17.41 4,26 1.981,7.93 2,19.28 2,30 0,8.35 2.378,18.76 6,26 4.719,9.44 4.42,16.42 10,22 7.578,7.58 12.289,16.39 18,23.99999 3.871,5.15999 12.88999,9.44999 17.99999,11.99999"
       inkscape:connector-curvature="0"
       style="fill:none;stroke:#000000;stroke-width:1px" />
    <path
       id="path2297-7-4-5"
       d="m -585.78333,366.86122 c -4.88,-2.80999 -8.868,-6.85999 -12.90899,-10.72998 -4.363,-4.81 -8.559,-9.72 -12.465,-14.9 -3.242,-3.73 -6.36,-7.54 -9.423,-11.41 -3.122,-4.21 -5.7,-8.78 -8.384,-13.27 -3.299,-5.16 -6.364,-10.43 -9.196,-15.85 -2.382,-4.68 -2.592,-9.76 -3.091,-14.85 -0.102,-5.62 -0.048,-11.23 -0.037,-16.85 0,-1.74 -0.015,-3.48 -0.023,-5.23 l 25.932,-13.2 c -0.003,0.26 -0.064,5.1 -0.062,5.27 -0.025,5.55 -0.108,11.1 0.096,16.65 0.366,4.74 0.425,9.49 2.411,13.93 2.858,5.3 5.581,10.68 9.096,15.61 2.676,4.33 5.196,8.79 8.34699,12.8 3.058,3.9 6.118,7.79 9.188,11.69 3.81,5.02 7.85001,9.83 12.2,14.41 4.09,3.86 8.1,7.8 13.32,10.12 l -25,15.80998 z"
       inkscape:connector-curvature="0"
       style="fill:#b3b3b3" />
    <path
       id="path2301-4-5-2"
       d="m -591.48333,379.85122 c -4.36699,-2.19 -8.58899,-4.64 -12.91199,-6.93 -5.984,-3.02 -11.68,-6.5 -17.393,-9.97999 -5.177,-3.68 -5.828,-8.52999 -7.223,-14.20999 -0.764,-4.76 -1.628,-9.5 -2.448,-14.26 -1.757,-4.87 -2.432,-9.96 -3.264,-15.03 -0.552,-5.14 -0.531,-10.31 -0.595,-15.47 0.044,-4.97 0,-9.94 -0.026,-14.91 0.046,-4.77 0.034,-9.54 0.039,-14.32 -0.009,-4.7 -0.01,-9.41 -0.007,-14.12 -0.033,-5.2 -1.891,-9.99 -3.481,-14.86 -1.332,-4.78 -2.056,-9.71 -2.894,-14.6 -0.821,-4.19 -1.958,-8.31 -2.925,-12.47 -0.621,-4.34 -0.688,-8.74 -0.891,-13.11 0.366,-4.53 -2.192,-7.25 -4.05,-10.78 -2.955,-2.83 -6.721,-4.37 -10.353,-6.1 -3.566,-0.81 -6.025,-3.23 -8.835,-5.17 -2.678,-3.27 -1.427,-6.02 -1.214,-9.58 0.856,-3.13 3.665,-4.55 5.702,-6.68 18.539,-13.73 20.275,-14.97 35.462,-16.2 4.588,-0.75 6.635,2.01 10.015,4.04 2.648,3.38 2.813,7.35 3.386,11.4 0.907,3.49 1.202,7.07 1.728,10.62 0.269,4.92 0.27,9.85 0.34,14.77 -0.004,4.75 -0.003,9.49 0.012,14.24 0.023,4.18 0.027,8.36 0.034,12.53 -0.259,4.4 0.483,8.73 1.071,13.06 0.363,4.66 1.285,9.24 2.096,13.83 1.456,5.13 1.906,10.41 2.464,15.68 -0.159,4.15 0.886,8.12 1.658,12.14 1.462,4.44 2.408,9.03 3.462,13.58 0.683,4.62 2.461,8.78 4.196,13.01 2.312,3.9 4.01899,8.07 5.80299,12.21 2.263,4.59 5.343,8.73 8.223,12.94 2.88001,3.27 5.49001,6.73 8.13001,10.12 1.87999,3.24 3.78999,6.46 5.69999,9.68 -27.22399,17.57999 -21.06,21.06999 -31.61799,7.4 -3.037,-4.29 -5.826,-8.72 -8.627,-13.14 -3.323,-4.93 -5.598,-10.37 -7.915,-15.8 -2.13,-4.8 -1.97,-9.76 -2.101,-14.81 0.606,-4.57 0.885,-9.16 1.189,-13.76 0.633,-3.73 -0.231,-7.3 -0.636,-10.96 -1.168,-3.05 -2.317,-6.11 -3.467,-9.17 -1.609,-3.92 -3.164,-7.84 -4.593,-11.83 -0.943,-4.55 -0.947,-9.19 -1.12,-13.81 -10e-4,-4.1 -0.801,-8.16 -1.395,-12.21 -0.5,-4.03 -0.509,-8.09 -0.607,-12.14 -0.036,-4 -0.022,-8.01 -0.019,-12.01 0.448,-3.99 -0.614,-7.79 -1.246,-11.66 -1.334,-4.26 -3.308,-8.27 -5.103,-12.33 0.019,-3.4 -2.14,-6.56 -3.054,-9.22 -4.67,-1.47 -9.486,-1.02 -14.24,-0.98 -11.592,2.18 -29.339,14.69 13.998,-10 -3.488,2.07 -4.067,5.35 -5.636,8.62 -1.032,3.31 1.319,5.44 2.257,8.15 2.903,2.91 6.718,3.22 10.563,4.04 5.699,1.97 9.581,6.21 13.561,10.52 4.114,3.48 6.611,7.97 9.253,12.49 1.636,4.04 1.558,8.34 1.769,12.6 0.03,5.43 -0.098,10.87 -0.158,16.3 0.02,5.09 0.073,10.17 0.114,15.26 0.036,4.57 -0.028,9.15 -0.053,13.72 -0.353,5.01 0.227,9.95 0.652,14.89 0.892,4.69 2.257,9.27 3.599,13.78 2.506,3.39 5.928,5.87 9.181,8.51 6.35199,5.25 12.82199,10.32 19.362,15.33 l -23.614,14.95 c -6.684,-4.99 -13.314,-10.05 -20.166,-14.8 -3.725,-2.89 -7.74,-5.42 -10.288,-9.52 -1.33,-4.76 -2.656,-9.57 -3.693,-14.47 -0.635,-5.13 -1.465,-10.21 -0.965,-15.46 -0.026,-4.55 -0.091,-9.11 -0.052,-13.66 0.052,-5.14 0.109,-10.28 0.166,-15.42 -0.021,-5.37 -0.066,-10.74 -0.089,-16.1 -0.155,-3.9 -0.051,-7.85 -1.274,-11.6 -2.361,-4.3 -4.688,-8.49 -8.441,-11.87 -3.782,-3.85 -7.422,-7.47 -12.847,-8.85 -4.51,-1.2 -8.693,-1.8 -11.83,-5.68 -1.589,-3.44 -3.974,-6.08 -3.405,-10.31 1.194,-3.87 1.27,-7.7 4.868,-10.4 14.877,-8.96 21.74,-16.87 36.595,-18.28 5.413,0.28 10.904,0.01 15.818,2.72 1.434,3.39 3.871,6.35 3.684,10.56 1.726,4.18 3.529,8.33 5.188,12.54 0.864,4.07 2.023,8.11 1.628,12.33 -0.004,4 -0.017,7.99 0.003,11.98 0.088,3.96 0.034,7.92 0.455,11.87 0.568,4.15 1.381,8.32 1.486,12.51 0.088,4.39 -0.013,8.81 0.847,13.14 1.438,3.9 2.601,7.91 4.543,11.64 1.232,3.15 2.47799,6.3 3.69199,9.47 0.491,3.9 1.5,7.68 0.827,11.67 -0.301,4.65 -0.559,9.3 -1.222,13.91 -0.112,4.66 -0.488,9.14 1.425,13.61 2.141,5.37 4.121,10.82 7.681,15.47 2.75,4.32 5.50001,8.63 8.45001,12.81 10.99999,12.83 8.96999,6.77 -19.259,21.97999 -1.634,-3.13999 -3.122,-6.52999 -5.138,-9.54999 -2.65,-3.27 -5.255,-6.65 -7.898,-9.96 -2.936,-4.44 -6.032,-8.81 -8.636,-13.45 -1.71,-4.07 -3.371,-8.16 -5.595,-11.99 -1.929,-4.51 -3.892,-8.87 -4.584,-13.83 -1.037,-4.46 -1.979,-8.92 -3.518,-13.24 -0.949,-4.22 -2.047,-8.39 -1.762,-12.79 -0.469,-5.15 -0.769,-10.32 -2.22,-15.32 -0.952,-4.64 -2.125,-9.24 -2.329,-13.99 -0.629,-4.43 -1.525,-8.86 -1.338,-13.35 0.009,-4.19 0.014,-8.39 0.045,-12.58 0.026,-4.75 0.044,-9.49 0.025,-14.24 -0.012,-4.84 0.061,-9.68 -0.325,-14.51 -0.524,-3.56 -0.844,-7.15 -1.78,-10.64 -0.488,-3.31 -0.183,-6.72 -2.431,-9.49 -2.831,-0.92 -5.057,-3.24 -8.58,-2.06 -12.152,2.3 -25.854,8.24 15.618,-11.93 -2.179,1.7 -4.827,2.63 -6.347,5.1 -0.127,1.97 -3.135,4.54 -0.422,6.55 2.654,1.47 5.163,3.48 8.159,4.44 3.854,2.01 7.853,3.78 10.905,7 2.502,4 4.882,7.37 4.854,12.43 0.265,4.29 0.505,8.61 0.915,12.9 0.942,4.14 1.815,8.31 2.804,12.43 0.791,4.83 1.453,9.69 2.581,14.46 1.73,5.09 3.713,10.12 4.016,15.55 0.003,4.71 0.002,9.42 -0.008,14.13 10e-4,4.77 -0.011,9.53 0.02,14.3 -0.044,4.98 -0.117,9.96 -0.063,14.94 0.048,5.07 -0.016,10.15 0.411,15.21 0.749,5 1.355,10.01 3.187,14.78 0.889,4.81 1.796,9.61 2.533,14.45 1.027,4.93 1.349,8.95 5.796,12.16 5.57399,3.47 11.26399,6.7 17.094,9.74 4.32,2.17999 8.60999,4.57999 13.28999,5.92999 l -24.41,16.82999 z"
       inkscape:connector-curvature="0"
       style="fill:#b3b3b3" />
    <path
       id="path2339-0-5-7"
       d="m -643.43232,222.60124 c 2.743,-1.7 4.927,-4.14 7.285,-6.31 2.103,-2.45 2.824,-5.55 4.018,-8.42 1.483,-4.04 -0.371,-7.18 -1.255,-10.94 -1.933,-4.44 -5.157,-8.12 -8.049,-11.95 -2.127,-2.68 -4.924,-4.7 -7.489,-6.93 -2.165,-2.28 -4.852,-3.94 -7.368,-5.8 -6.408,0.94 10.567,-7.55 16.258,-10.65 -2.461,3.44 -3.004,7.73 -3.986,11.76 -0.991,3.73 -0.944,7.58 -1.21,11.39 0.198,4.01 1.97,7.72 3.322,11.45 1.515,4.21 4.804,4.95 8.189,7.05 4.269,1.9 8.566,1.32 12.861,1.11 -8.284,-2.59 -20.742,23.83 -20.604,4.57 -1.273,-3.85 -4.394,-5.15 -7.259,-7.35 -5.063,-0.51 -8.38,-3.59 -12.264,-6.38 -2.772,-3.02 -5.448,-6.1 -8.134,-9.19 -2.795,-3.25 -3.933,-7.16 -5.319,-11.08 -0.567,-14.83 18.218,-16.32 30.199,-23.06 4.89,-0.73 9.836,-0.72 14.766,-0.84 4.216,-0.02 8.433,0.01 12.65,0.02 5.241,-1.09 6.477,1.7 9.956,4.09 1.747,3.6 1.406,7.56 1.669,11.42 0.111,4.09 -0.081,8.17 -0.214,12.24 -0.449,4.25 -2.276,8.14 -3.805,12.07 -0.204,0.66 -0.409,1.32 -0.614,1.98 l -26.414,12.55 c 0.184,-0.71 0.368,-1.43 0.552,-2.14 1.463,-3.78 3.068,-7.57 4.026,-11.49 0.183,-3.93 0.596,-7.9 0.378,-11.87 -0.159,-3.3 0.167,-6.71 -1.032,-9.86 -2.409,-0.69 -4.85,-3.08 -8.202,-1.79 -4.18,-0.02 -8.36,-0.06 -12.539,-0.03 -4.794,0.19 -9.673,0.06 -14.28,1.62 5.892,-3.57 22.306,-14.69 18.689,-8.82 1.326,3.45 1.956,7.09 4.709,9.9 2.563,3.02 5.094,6.06 7.803,8.95 3.824,2.41 7.408,4.66 11.974,5.67 3.491,2.76 6.793,5.01 8.352,9.49 2.048,17.31 -5.804,18.73 -28.389,26.89 -4.727,-0.34 -9.427,-0.35 -13.828,-2.52 -4.02,-2.49 -7.64,-4.18 -9.429,-8.98 -1.5,-4.07 -3.35,-8.1 -3.914,-12.44 0.19,-3.98 0.098,-8 0.959,-11.92 1.151,-4.32 1.834,-8.79 3.467,-12.94 11.347,-7.31 21.881,-22.65 35.471,-16.68 2.565,1.92 5.263,3.68 7.517,5.97 2.676,2.46 5.592,4.73 7.681,7.75 2.954,4.02 6.136,7.93 8.378,12.42 1.457,4.15 3.252,7.93 2.223,12.48 -0.971,3.31 -1.431,6.65 -3.462,9.59 -2.146,2.42 -4.144,5.01 -6.639,7.13 l -27.654,10.82 z"
       inkscape:connector-curvature="0"
       style="fill:#ff0000" />
    <text
       transform="scale(0.77760432,1.2860011)"
       id="text3188-4"
       y="156.08217"
       x="-860.0083"
       style="font-style:normal;font-weight:normal;line-height:0%;font-family:sans-serif;letter-spacing:0px;word-spacing:0px;fill:#0000ff;fill-opacity:1;stroke:#880000;stroke-width:0.439648;stroke-opacity:1"
       xml:space="preserve"><tspan
         style="font-style:normal;font-variant:normal;font-weight:normal;font-stretch:normal;font-size:31.6547px;line-height:1.25;font-family:Ravie;-inkscape-font-specification:Ravie;fill:#0000ff;fill-opacity:1;stroke:#880000;stroke-width:0.439648;stroke-opacity:1"
         y="156.08217"
         x="-860.0083"
         id="tspan3190-2"
         sodipodi:role="line">Tire</tspan></text>
  </g>
</svg>
